<?xml version="1.0" encoding="UTF-8"?>
<svg version="1.1" viewBox="0 0 1024 1024" width="1280" height="1280" xmlns="http://www.w3.org/2000/svg">
<path transform="translate(0)" d="m0 0h1024v1024h-1024z" fill="#0C1A4A"/>
<path transform="translate(344,185)" d="m0 0h348l1 1v128l-2 17-5 19-5 12-7 14-12 16-9 10-10 10-11 9-14 12-11 9-15 13-11 9-14 12-8 8-7 11-4 11-2 12 1 14 3 10 6 11 11 12 13 12 16 15 13 12 7 7 8 7 29 29 13 17 10 17 7 16 6 21 3 16 1 14v98h-352v-105l4-25 6-20 8-18 12-19 11-13 9-10 8-7 11-11h2l1-3 8-7 8-8 8-7 8-8 8-7 15-14 7-7 8-12 4-11 1-5v-17l-3-12-7-13-11-12-11-10-11-9-10-9-9-7-13-11-11-9-11-10-8-7-8-8-13-17-7-12-8-20-5-19-1-7v-134z" fill="#41CDD8"/>
<path transform="translate(344,185)" d="m0 0h10l1 1 1 131 3 16 1 3 18 5 41 10 50 10 19 3 10 1h38l32-4 46-9 42-10 15-4 4 1-5 15-10 19-9 11-7 8-8 8-5 2-14 12-10 9-11 9-9 7-3 3-6 5-2 4-6 5h-2l-1 3-10 8-9 10-7 11-4 8-4 19-5 9-5 11v126l-2 31-2 9-2 2-3-8-2-23-1-39v-45l1-54-4-9-4-4-2 15-4 13-4 8-9 12-5 6-6 5h-2l-1 4-6 4-7 7-8 7-7 7-8 7-4 5-9 7-6 7-8 6-6 7h-2l-2 4-12 13-11 17-8 16-6 17-4 17-1 9-1 48 47-14 28-10 24-11 15-8 24-11 16-5 10-1 15 3 16 7 15 8 19 10 21 9 23 8 46 15 5 1 1 22v34h-339v-105l4-25 6-20 8-18 12-19 11-13 9-10 8-7 11-11h2l1-3 8-7 8-8 8-7 8-8 8-7 15-14 7-7 8-12 4-11 1-5v-17l-3-12-7-13-11-12-11-10-11-9-10-9-9-7-13-11-11-9-11-10-8-7-8-8-13-17-7-12-8-20-5-19-1-7v-134z" fill="#FAB54A"/>
<path transform="translate(504,520)" d="m0 0 5 5 4 9-1 54v47l1 37 2 23 2 7 2-3 2-18 1-20v-126l5-11 4-4h1l3 21 3 7 6 12 5 7 16 16 8 7 10 9 2 1v2l4 2 11 11 5 4v2l4 2 35 35 10 14 8 13 8 18 5 16 3 17 1 8v46l-8-1-47-15-29-11-25-12-10-6-16-8-14-5-11-2-10 1-16 5-24 11-19 10-25 11-36 12-31 9h-3v-48l2-13 4-16 7-19 9-16 10-14 12-13 5-5 4-5 6-5h2l2-4 7-7 4-3h2l2-4 5-5h2l1-3 8-7 7-7 8-7 5-4h2l1-4 6-5h2l2-4 7-8 6-9 4-10 3-16 1-7z" fill="#43CDD9"/>
<path transform="translate(671,338)" d="m0 0 4 1-5 15-10 19-9 11-7 8-8 8-5 2-14 12-10 9-11 9-9 7-3 3-6 5-2 4-6 5h-2l-1 3-10 8-9 10-7 11-4 8-4 19-5 9-5 11v126l-2 31-2 9-2 2-3-8-2-23-1-39v-45l1-54-4-9-4-4h-1l-4-23-5-11-7-11-2-4h-2l-6-7-8-7-11-9-11-10-7-5v-2l-4-2-14-11-11-10-8-7-10-9-9-9-10-14-9-15 1-4 50 12 50 10 25 4 11 1h29l29-3 24-4 8-2-1-12 48-11z" fill="#FAB54A"/>
<path transform="translate(249,465)" d="m0 0h12l17 3 14 5 13 8 9 7 5 6v3l-18 13-16 12-6 4-15 11-4 1-1-62-2-2h-7l-1 4v64l-5 5-17 12-6 5-1 6 2 4 7 1 11-7 10-7 11-7 4-6 15-11 16-11 18-13 10-6h4l5 10 5 16 1 7v14l-3 17-5 13-5 9-7 9-11 11-15 9-14 6-9 2-9 1h-13l-17-3-13-5-12-7-10-9-7-7-8-12-6-15-3-11-1-7v-16l3-14 5-13 8-13 9-10 9-8 11-7 17-6z" fill="#F9B44B"/>
<path transform="translate(320,858)" d="m0 0h393l4 4 1 2v12l-4 11-8 9-6 4-9 3-27 1h-299l-21-1-11-4-5-3v-2l-3-1-6-9-3-7v-14l2-4z" fill="#56B2FA"/>
<path transform="translate(346,128)" d="m0 0h342l10 3 8 5 8 9 4 11v8l-3 7-2 2h-393l-4-5-1-8 2-9 4-8 6-7 8-5z" fill="#55B1FA"/>
<path transform="translate(344,185)" d="m0 0h10l1 1 1 131 3 16 1 3 18 5 41 10 50 10 19 3 10 1h38l32-4 20-4 4 1 1 11-9 3-24 4-29 3h-29l-25-3-42-8-45-10-24-6 1 4 6 11 10 14 9 10 8 8 8 7 14 12 11 9 7 5 5 5 8 7 13 11 8 7 9 8v2h2l7 10 5 9 4 11 2 13v13l-3 16-5 11-9 13-6 7-6 5h-2l-1 4-6 4-7 7-8 7-7 7-8 7-4 5-9 7-6 7-8 6-6 7h-2l-2 4-12 13-11 17-8 16-6 17-4 17-1 9-1 48 47-14 28-10 24-11 15-8 24-11 16-5h9v12l-21 6-23 11-17 9-20 9-24 9-29 9-19 5-10 1v45h-14v-105l4-25 6-20 8-18 12-19 11-13 9-10 8-7 11-11h2l1-3 8-7 8-8 8-7 8-8 8-7 15-14 7-7 8-12 4-11 1-5v-17l-3-12-7-13-11-12-11-10-11-9-10-9-9-7-13-11-11-9-11-10-8-7-8-8-13-17-7-12-8-20-5-19-1-7v-134z" fill="#F7F5E0"/>
<path transform="translate(510,246)" d="m0 0h17l11 4 9 7 7 8 6 12 2 8v21l-3 12-4 10 24 9 12 6 13-2 33-8 16-4 23-6h1v7l-2 8-44 11-36 8-34 6-25 3h-38l-23-3-42-8-39-9-32-8-3-2-3-11v-3l72 18 13 3 5-1 16-7 16-5h3l-6-16-2-8v-20l4-13 6-11 7-7 10-6z" fill="#0C1A4A"/>
<path transform="translate(688,185)" d="m0 0 5 1v128l-2 17-5 19-5 12-7 14-12 16-9 10-10 10-11 9-14 12-11 9-15 13-11 9-14 12-8 8-7 11-4 11-2 12 1 14 3 10 6 11 11 12 13 12 16 15 13 12 7 7 8 7 29 29 13 17 10 17 7 16 6 21 3 16 1 14v98h-13l-1-1v-37l-1-64-3-20-4-15-6-16-9-17-8-11-8-10-33-33-8-7-12-12-2-1v-2l-4-2-14-13-8-7-8-8v-2l-3-1-9-14-2-5-3-7-3-20-2-1 3-5 4-19 8-15 9-11 7-7 7-5 5-5 4-2 2-5 6-5h2l1-3 9-7 15-13 8-7 13-11 5-2 12-12 9-12 8-14 5-11 5-19 2-13 1-131z" fill="#84C7F3"/>
<path transform="translate(538,552)" d="m0 0 3 3 8 12 16 16 8 7 10 9 2 1v2l4 2 11 11 5 4v2l4 2 35 35 10 14 8 13 8 18 5 16 3 17 1 8v46l-8-1-47-15-29-11-25-12-10-6-16-8-14-5-11-2-10 1-16 5-24 11-19 10-25 11-36 12-31 9h-3v-13l25-7 19-6 27-9 24-11 33-17 15-6 10-2h21l15 4 16 8 27 14 12 6 21 8 5-1 4-7 4-14v-20l-3-15-3-10v-3h-2l-5-13-7-14-7-11-8-12-16-23-5-7v-2h-2l-9-12-8-10-13-18-6-10z" fill="#1BA2BB"/>
<path transform="translate(671,338)" d="m0 0 4 1-5 15-10 19-9 11-7 8-8 8-5 2-14 12-10 9-11 9-9 7-3 3-6 5-2 4-6 5h-2l-1 3-10 8-9 10-7 11-4 8-4 19-5 9-5 11v126l-2 31-2 9-2 2-3-8-2-23-1-39v-45l1-54-4-9-4-4h-1l-1-6v-12l11-10 10-8 24-22 12-12 7-8 3-4h2l2-4 9-14 5-10 5-17 1-6v-24l-2-7 48-11z" fill="#DB851A"/>
<path transform="translate(355,186)" d="m0 0h324v131l-1 9-2-2-31 8h-6l7-11 5-8 5-13 3-16v-23l-3-16-4-13-5-13-6-10-8-10-1-1h-192l-85-1z" fill="#1BA2BB"/>
<path transform="translate(610,858)" d="m0 0h103l4 4 1 2v12l-4 11-8 9-6 4-9 3-27 1h-299l-21-1-11-4-5-3v-2l-3-1-5-7 1-2 6 4 8 3 282 1 7-1 3-3 5-13 4-4 27-2 5-5 1-5h-59z" fill="#3A8ADE"/>
<path transform="translate(247,495)" d="m0 0 2 1v46l-5 5-17 12-6 5-1 6 2 4 7 1 11-7 10-7 11-7 4-6 15-11 16-11 7-4 5 12 1 6v16l-2 10-7 14-10 12-13 8-13 4h-16l-17-5-9-5v-2l-3-1v-2h-2l-9-11-5-12-2-10v-14l3-12 5-10 2-3h2l2-4 7-7 12-7z" fill="#F8F6E1"/>
<path transform="translate(776,644)" d="m0 0h18l13 4 10 6 10 9 5 5 6 11 4 12 1 5v16l-1 3h-45l-4-4 6-9 2-7-1-9-5-8-6-3h-10l-7 4-3 4-2 7 1 9 4 8 2 2-1 4-3 2h-45l-1-2v-17l4-15 6-11 8-10 11-8 10-5z" fill="#FAB54A"/>
<path transform="translate(520,731)" d="m0 0h10l16 6 38 20 21 9 23 8 46 15 5 1 1 22v34h-76l7-11 3-7 1-3v-17l-3-9-7-12-7-7-14-9-26-14-21-10-9-3-9-1v-11z" fill="#DB8519"/>
<path transform="translate(346,128)" d="m0 0h324l4 8v5l-2 1-326 1-8 3-5 6-2 4-1 7-5 1h-9l-1-4 2-9 4-8 6-7 8-5z" fill="#F9F7E1"/>
<path transform="translate(754,500)" d="m0 0h62l19 1 6 4 4 5 3 8v33h-94l-1-50z" fill="#FAB449"/>
<path transform="translate(508,718)" d="m0 0h21l15 4 16 8 27 14 12 6 27 10 44 14 9 4v12l-8-1-47-15-29-11-25-12-10-6-16-8-14-5-11-2-10 1-16 5-24 11-19 10-25 11-36 12-31 9h-3v-13l25-7 19-6 27-9 24-11 33-17 15-6z" fill="#0C1A4A"/>
<path transform="translate(220,375)" d="m0 0 4 1 12 23 11 19 2 3 4-1 9-14 9-16 8-14 9 2 11 7 7 7 6 10 4 11 1 11-21 1h-108l-5-1 2-15 4-9 6-9 7-7 16-8z" fill="#55B1F8"/>
<path transform="translate(249,465)" d="m0 0h12l17 3 14 5 13 8 9 7 5 6v3l-18 13-16 12-6 4-15 11-4 1-1-62-2-2h-7l-2 5-2 1-12 2-10 4-11 6-11 10-9 13-4 8-6 17-1 2h-3l-1 9 4 2v3l-6 5-3 3-2-9v-16l3-14 5-13 8-13 9-10 9-8 11-7 17-6z" fill="#FAB44A"/>
<path transform="translate(754,559)" d="m0 0h94v29l-3 7-5 5-6 3h-88l5-7 2-9z" fill="#52ADF8"/>
<path transform="translate(717,156)" d="m0 0h1v8l-3 7-2 2h-393l-4-5v-4l14-1 1-4v4h386z" fill="#3A8ADE"/>
<path transform="translate(752,391)" d="m0 0 5 1 8 16 15 28h3l12-21 9-16 4-8 6 1 11 6 7 6 7 11 4 12v13h-124v-9l3-12 6-11 9-9 12-7z" fill="#FBB54A"/>
<path transform="translate(320,858)" d="m0 0h288l1 1v11l-293 1v-8l2-4z" fill="#FAF8E2"/>
<path transform="translate(778,307)" d="m0 0h8l11 4 7 6 6 10 2 7v15l-4 11-6 9-7 6-7 3h-12l-11-6-7-8-5-11-1-4v-16l4-11 9-10 9-4z" fill="#F8F6E1"/>
<path transform="translate(246,292)" d="m0 0h9l8 3 6 4 7 8 4 11v17l-5 13-9 10-10 5h-10l-12-6-8-9-5-12-1-12 2-11 6-11 7-6z" fill="#F8F7E1"/>
<path transform="translate(511,258)" d="m0 0h12l10 4 8 7 4 6 3 10v13l-3 10-6 9-6 5-9 4h-14l-10-5-7-7-5-10-2-8v-8l2-9 6-11 11-8z" fill="#F8F7E1"/>
<path transform="translate(748,724)" d="m0 0h87l4 1-1 5-6 10-9 10-8 6-11 5-12 3h-16l-16-4-9-5-10-8-9-12-4-8v-2z" fill="#53B0F9"/>
<path transform="translate(244,693)" d="m0 0h8l9 2 3 14 6 9 7 7 9 4-3 10-6 8-8 5-11 3h-10l-11-4-10-9-5-10-1-3v-13l4-11 5-6 9-5z" fill="#45CBDA"/>
<path transform="translate(459,621)" d="m0 0h7l6 4 3 7-1 7-7 8-14 8-14 11-7 7-9 14-7 13-6 4h-8l-5-5-2-4v-7l5-13 10-15 15-16 14-11 13-9z" fill="#FAF8E2"/>
<path transform="translate(325,506)" d="m0 0 4 2 6 14 3 11 1 7v14l-3 17-5 13-5 9-7 9-11 11-15 9-14 6-9 2-17-1 1-3-5-3v-8l3-2 7 1 2 4 1-1 16-3 16-8 11-9 10-14 4-8 4-14 1-9-2-2v-6l2-2-1-11-4-14-1-6z" fill="#DA851C"/>
<path transform="translate(667,442)" d="m0 0 7 7 7-1 4-5 5 1 7 4-1 4-2 4 5 8 8 1v12l-5 1-4 2-3 5 1 5v4l-7 5-4-1-2-3-8-1h-3l-3 6-5-2-6-4 2-8-4-6-6-1-3-1v-13l9-1 2-5 1-2h2l-4-8z" fill="#F1AF4B"/>
<path transform="translate(279,376)" d="m0 0 9 2 11 7 7 7 6 10 4 11 1 11-21 1h-40l-6-1v-2l5-5 10-16 13-24z" fill="#53AFF9"/>
<path transform="translate(754,500)" d="m0 0h62l19 1 6 4 4 5 3 8v28l-2-1-1-26-2-7-2-1-17-1 1 3 8 1 3 4-1 5-3 2-5 1 8 4 1 1v6l-3 1-20 2-1 1-10 1-2-1v-2l-15 1-3 1-4-1-5 1-6-3v-3l5 1h62v-5h-65v-2l5-2h5l-8-2-3-1v-2h66l-1-4-7-1h-56l-3 2v-4l12-3 2-1h-24l-1 40h-2l-1-50z" fill="#E2B56A"/>
<path transform="translate(201,724)" d="m0 0 10 1 2 6 4 11 7 9 8 7 9 4 12 2 11-1 12-5 9-7 7-11 4-13 11-2h4v7l-4 13-7 12-6 7-8 6-12 6-14 3h-9l-14-4-12-6-9-8-7-10-5-11-3-12z" fill="#54B0F7"/>
<path transform="translate(557,464)" d="m0 0 2 1-8 8-9 13-5 10-4 19-5 9-5 11v126l-2 31-2 9-2 2-3-8-2-23-1-39v-45l1-54-4-9-4-4h-1v-5l3 1 7 11 3 7 2 1v2h2l2-9 8-14 3-14 5-12 7-12 11-12z" fill="#F6B651"/>
<path transform="translate(398,213)" d="m0 0h7l6 3 3 4 1 8-3 7-4 6-7 9-6 14-4 10-5 4-8 1-5-3-3-4-1-3v-8l4-13 7-14 8-13 8-7z" fill="#FAF8E2"/>
<path transform="translate(246,490)" d="m0 0h2v5l-8 3-12 5-9 7-6 7h-2l-2 4-5 12-2 9v14l4 16 6 10 2 4 3 1v2h2l3 3v2l6 2 9 4 11 3h16l13-4 14-9 8-10 7-14 2-10v-16l-3-12-2-3 1-5 12-8 2 1-6 7 5 20v11l-1 10-8 20-16 16-15 7-5 2-20 1-18-1-14-6-9-8-1-4h-2l-6-8-5-10-1-9-1-1v-16l6-19 6-9 3-5h2l2-4 10-8 12-6z" fill="#EBB965"/>
<path transform="translate(739,479)" d="m0 0h74l8 4 4 5v2l-75 1-9 2-6 5-5 10-1 4-1 33-1 3-3 1h-13v-3l4-5 4-11 1-7 1-21 4-13 4-5z" fill="#F7F6E1"/>
<path transform="translate(242,466)" d="m0 0h13l-3 4-4 9-2 1-12 2-10 4-11 6-11 10-9 13-4 8-6 17-1 2h-3l-1 9 4 2v3l-6 5-3 3-2-9v-16l3-14 5-13 8-13 9-10 9-8 11-7 17-6z" fill="#F5F4DF"/>
<path transform="translate(830,724)" d="m0 0 9 1-1 5-6 10-9 10-8 6-11 5-12 3h-16l-16-4-9-5-10-8-9-12-4-8v-2h12l4 4 4 7 7 7 12 6 9 2h16l13-5 9-6 7-8 3-7z" fill="#3A8ADE"/>
<path transform="translate(902,436)" d="m0 0 10 1 9 6 5 8 1 10-3 9-7 7-7 3h-10l-10-5-6-7-2-6v-8l5-10 6-5z" fill="#F9B44B"/>
<path transform="translate(808,391)" d="m0 0 6 1 11 6 7 6 7 11 4 12v13h-47l6-8 3-6 1-5v-7l-3-11 1-4z" fill="#DA851B"/>
<path transform="translate(776,644)" d="m0 0h18l13 4 5 3-1 2-9 3-8 1h-19l-13 5-11 8-6 8-6 12-2 6-1 16v3h-11l-1-2v-17l4-15 6-11 8-10 11-8 10-5z" fill="#F6F4DF"/>
<path transform="translate(909,529)" d="m0 0h5l3 5-1 30-3 25-5 26-6 23-9 26-5 9-3 1-4-2 1-9 8-21 8-30 6-33 2-23 1-24z" fill="#D8861F"/>
<path transform="translate(346,128)" d="m0 0h324l4 8v5l-2 1-326 1-8 3-5 6-2 4-1 7-5 1h-9l-1-4 2-9 3-6 2 3-3 6-1 5 7 1h3l2-9 7-8 8-3 11-1h13v-1h12l3 1h115v-1h12l1 1h155l2-4-2-5h-320l-9 1 3-2z" fill="#EBF3E9"/>
<path transform="translate(237,706)" d="m0 0h7l6 4 4 6 1 3v13l-3 7-8 8-5 4-5-2-7-7-5-10-1-3v-11l11-9z" fill="#F9F7E1"/>
<path transform="translate(507,337)" d="m0 0h23l14 2 17 5 5 3-2 2-20 3-10 1h-34l-18-2-13-2v-2l13-5 16-4z" fill="#FBB54A"/>
<path transform="translate(812,651)" d="m0 0 9 6 8 7 8 12 5 15 1 5v16l-2 2h-15v-20l-4-12-6-10-8-8-8-5v-2h2v-2z" fill="#D9861E"/>
<path transform="translate(283,678)" d="m0 0h10l6 4 5 4 6 10 2 6v9l-5 4-8 2h-15l-6-3-4-5-3-7v-11l2-2 8 5 6 7 3 6 5-1 1-6-3-6-5-6-9-6v-2z" fill="#DA861D"/>
<path transform="translate(642,537)" d="m0 0h11l5 3 5 5 2 6-1 9-4 6-6 4-9 1-8-3-6-9v-11l4-6 5-4z" fill="#F9B44A"/>
<path transform="translate(261,494)" d="m0 0 16 5 10 6 9 7v2l-13 9-18 13-2 2h-3v-42z" fill="#F7F6E1"/>
<path transform="translate(291,203)" d="m0 0 6 1 1 1v5l-5 4-15 9-16 11-13 10-7 6h-2v2l-8 7-3 2-4-1-2-2 1-5 11-11 11-9 13-10 15-10z" fill="#3DC7D5"/>
<path transform="translate(279,376)" d="m0 0 9 2 11 7 7 7 6 10 4 11 1 11h-21l-1-14-5-14-7-9-2-1v-2l-4-1-1-2z" fill="#3A8ADE"/>
<path transform="translate(246,292)" d="m0 0h9l8 3 6 4 7 8 4 11v17l-5 13-9 10-10 5h-10l-9-4v-1h17v-2l2-2 2-1 5-1 1-5h3v-2l-2-1 8-4-1-4-2 1-1-3-1-13-2-5-5-7-1-5v-3l-3-3-14-2h-6l3-2z" fill="#E7EEE4"/>
<path transform="translate(667,442)" d="m0 0 7 7 7-1 4-5 5 1 7 4-1 4-2 4 3 6-4-2-2-5 1-3-4 1-1 4 5 8 1 10-1 4-3 1-4 4-5 2h-8l-4-3 1-2 3 2h9l4-3h2l2-5v-8l-3-5-4-2h-10l-5 4-3 3-2-3-2 7 1 8-3-3-3-4-2 2 1 3 4 1 4 3 1 9-3 4h-2l2-8-4-6-6-1-3-1v-13l9-1 2-5 1-2h2l-4-8z" fill="#F7B34B"/>
<path transform="translate(307,725)" d="m0 0h4v7l-4 13-7 12-6 7-8 6-12 6-14 3h-9l-14-4-3-2h2v-4l7 1h18l12-3 6-3 10-9 7-10 4-9 2-8-2-2z" fill="#3A8ADE"/>
<path transform="translate(802,797)" d="m0 0 5 1 1 1v5l-11 11-8 7-14 11-7 5h-2v2l-18 11-5 3-5-1-1-1v-5l11-8 11-7 11-8 10-8 14-12z" fill="#D78722"/>
<path transform="translate(737,204)" d="m0 0 6 2 18 11 10 7v2l5 2 13 11 14 12 2 3v5l-6 1-11-9-9-8-13-10-30-20-2-2 1-6z" fill="#CB8C3D"/>
<path transform="translate(223,677)" d="m0 0 9 1 8 4v2l-14 7-8 9-7 14-2 1h-7l-4-3-1-6 4-13 7-9 8-5z" fill="#EAF0E4"/>
<path transform="translate(220,375)" d="m0 0 4 1 3 6-1 4-12 7-8 6-4 6h-2l-2 5-6 14-4 1-5-1 2-15 4-9 6-9 7-7 16-8z" fill="#F6F5E0"/>
<path transform="translate(778,307)" d="m0 0h8l11 4 7 6 6 10 2 7v15l-4 11-6 9-7 6-7 3h-12l-6-3v-1l12-1 3-1h7l2-5 2-3 5-2 2-2v-5l-3-5v-14l-1-7-5-10-3-5-3-2-6-2h-11l3-2z" fill="#E8EFE4"/>
<path transform="translate(752,391)" d="m0 0 5 1 3 6v3l-11 6-10 9-5 9-2 6-1 8-1 1h-11v-9l3-12 6-11 9-9 12-7z" fill="#F5F3DF"/>
<path transform="translate(511,258)" d="m0 0h12l10 4 8 7 4 6 3 10v13l-3 10-6 9-6 5-9 4h-14l-3-2 5-2h9v-2l5-1 4-1 1-4 6-3v-4h2l1-8 1-3v-8l-5-2-2-3v-4h-2l-4-4-2-5-3-4-1-4-4-2h-10z" fill="#E7EEE4"/>
<path transform="translate(758,401)" d="m0 0h3l14 26 5 9h3l12-21 7-13 2 1 3 11v7l-3 9-7 9-1 1h-66l2-13 4-8 9-10 9-6zm-2 3-8 4-8 8-3 5-4 7-1 9 4 2h27l14-1-3-9-5-8-2-5-6-11z" fill="#F8B44C"/>
<path transform="translate(754,500)" d="m0 0h62l19 1 6 4 1 3-49 1h-39l-1-8z" fill="#F3F1DC"/>
<path transform="translate(557,464)" d="m0 0 2 1-8 8-9 13-5 10-4 19-5 9-5 11v126l-2 31-2 9-2 2-3-8-2-23-1-39v-45l1-54-4-9-4-4h-1v-5l3 1 7 11 1 3v130l1 20 2 13 2-6 1-16 1-32v-107l4-10 5-8 3-14 5-12 7-12 11-12z" fill="#A9A295"/>
<path transform="translate(320,858)" d="m0 0h288l1 1v11l-293 1v-8l2-4zm4 1-5 1v7l5 2h279l4-1v-8l-8-1z" fill="#ECF4EA"/>
<path transform="translate(246,490)" d="m0 0h2v5l-8 3-12 5-9 7-6 7h-2l-2 4-5 12-2 9v14l4 16 6 10 2 4 3 1v2h2l3 3v2l6 2 9 4 7 3v1l-10-1-2-1v-2h-7l-13-11-7-8-4-7-4-14-1-6v-13l5-16 6-9 3-5h2l2-4 10-8 12-6z" fill="#A9A294"/>
<path transform="translate(502,519)" d="m0 0h1v9l-3 16-5 11-9 13-6 7-6 5h-2l-1 4-6 4-7 7-8 7-7 7-8 7-4 5-9 7-6 7-8 6-6 7h-2l-2 4-12 13-11 17-8 16-6 17-4 17-1 9-1 46h-1l-2-12v-27l2-19 7-22 3-10 4-9 7-11 2-5 3-5 7-6 6-7 1-3 4-2 6-8 5-5 6-4 2-4 8-6 4-4 5-4 6-7h2l2-4 9-7 5-4 3-5 6-5h3l2-5 4-6 8-4 6-11 5-6 4-13 2-16z" fill="#EAF3EA"/>
<path transform="translate(322,505)" d="m0 0h6l5 6 4 11v4h2l2 10v23l-4 17-2 6h-2l-2 7-6 10-5 6h-2l-1 3-8 6-1 2-9 5-8 4-11 5-16 3h-16l-15-2-5-2-8-2v-2l-6-2-10-6-7-5-6-7v-2h-2l-1-4h-2l-4-6-7-15-3-9v-6l2 4 6 17 8 13 9 10 9 8 14 8 15 5 13 2h13l14-2 14-5 16-9 10-9 8-9 6-10 5-12 3-12 1-8v-14l-3-14-6-16-2-3-4 2-10 6-2-1 4-2 1-4h5z" fill="#1F1424"/>
<path transform="translate(842,507)" d="m0 0 3 3 3 8v28l-2-1-1-26-2-7-2-1-17-1 1 3 8 1 3 4-1 2-2-2-7-1h-56l-3 2v-4l12-3 2-1h-24l-1 40h-2v-42z" fill="#E8B766"/>
<path transform="translate(843,595)" d="m0 0 1 2-7 5-3 1h-88l5-7z" fill="#3A8ADE"/>
<path transform="translate(910,527)" d="m0 0 7 2 2 4-1 35-3 21-3 16-2 10-5 20-6 20-2 2-3 10-5 8-5 1-4-3v-9l7-19 6-21 4-17 3-15 3-23 1-11 1-26 2-4zm-1 2-2 3-2 36-2 17-6 31-9 32-7 18v6l5 2 4-4 6-14 7-22 5-19 6-32 2-19 1-30-3-5z" fill="#1F1424"/>
<path transform="translate(240,809)" d="m0 0 6 3 13 11 24 16 10 7 1 5-2 2h-5l-24-15-13-10-13-11-1-5z" fill="#CA8D41"/>
<path transform="translate(741,505)" d="m0 0 2 1 1 3 1 35v24l-1 8-3 3-15 1 2-4 5-7 3-11 1-38 1-9z" fill="#DAE8E4"/>
<path transform="translate(808,389)" d="m0 0 6 1 9 4 5 3 5 6 3 3 4 6 4 10 2 12v5l-4 3h-111l-3-2h115l-1-13-5-14-8-11-9-6-9-4h-3l-7 14-11 20-7 11-4-1-16-30-3-5 1-2 5 7 4 8 5 9 7 10 3-3 7-14 10-19 4-6z" fill="#1F1424"/>
<path transform="translate(776,545)" d="m0 0h71l1 1v5h-92l-1-3 1-2z" fill="#DB851A"/>
<path transform="translate(736,493)" d="m0 0 2 2-6 8-3 9-1 33-1 3-3 1h-13v-3l4-5 4-11 1-7 1-21 3-1 1-5z" fill="#E7F2EA"/>
<path transform="translate(459,621)" d="m0 0h7l6 4 3 7-1 7-7 8-14 8-14 11-7 7-9 14-7 13-6 4h-8l-5-5-2-4v-7l5-13 10-15 15-16 14-11 13-9zm1 2-6 3v2l-6 2-10 7v2l-6 2-1 3-4 2-6 5-6 7v3l-4 1-6 9-2 6-3 3-2 5-1 10 4 5 5 2 4-1 7-5 7-14 7-10 5-6 11-9 10-7 10-6v-2l4-2 2-5-1-5-5-6z" fill="#ECF4EA"/>
<path transform="translate(344,185)" d="m0 0h10l1 1 1 131 2 14h-2l-3-11-1-12v-118l-3-2h-5l-1 2-1 97h-1v-101z" fill="#E9F1E7"/>
<path transform="translate(672,459)" d="m0 0h10l6 4 2 4v8l-3 5-6 4h-9l-6-5-1-2v-11l5-6z" fill="#0C1B4B"/>
<path transform="translate(444,198)" d="m0 0 6 1 5 5 2 4-1 9-7 6h-9l-5-4-3-7 2-8 6-5z" fill="#FAF8E2"/>
<path transform="translate(389,501)" d="m0 0h9l5 5 2 4-1 9-5 5-8 1-6-3-4-5v-9l4-5z" fill="#FAB54A"/>
<path transform="translate(351,430)" d="m0 0h5l2 3 1 8 9 4 1 3-2 3-9 1v9l-2 3-5-1-2-5v-6l-8-1-3-3 2-4 9-2v-7z" fill="#DEB46C"/>
<path transform="translate(249,465)" d="m0 0h12l17 3 14 5v1l-10-1-10-3h-2v-2l-15 1-1 2 4-1 4 6v13l6 1 9 2 2 1v2l5 1 4 3 5 2 4 5 6-1 6-4h2v2l-11 8-4 2-13-10-11-5-10-3-2 1-1-20-2-2h-7l3-7z" fill="#E5B669"/>
<path transform="translate(306,519)" d="m0 0 3 1 4 17 1 3v19l-4 12-2 5h-2l-2 5-9 11-8 6-16 6h-4v-2l10-3 14-9 8-10 7-14 2-10v-16l-3-12-2-3 1-5z" fill="#AAA294"/>
<path transform="translate(689,450)" d="m0 0 1 2h2l1 6 6 6 8 1v12l-5 1-4 2-3 5 1 5v4l-7 4v-2l-5-2 1-6 5-8 2-1v-14l-2-1-4-8z" fill="#DB8820"/>
<path transform="translate(771,530)" d="m0 0h61l2 1v5l-35 1h-27l-4-2v-4z" fill="#1E1424"/>
<path transform="translate(737,257)" d="m0 0 5 1 2 11 8 1 1 1v5l-5 2h-5v8l-2 3h-5l-2-8v-3l-8-1-2-4 4-4 6-1 1-9z" fill="#DFB36B"/>
<path transform="translate(325,506)" d="m0 0 4 2 6 14 3 11v9l-2-2h-11l-4-17-3-8 1-5z" fill="#D9851D"/>
<path transform="translate(845,305)" d="m0 0 5 1 7 9 11 19 3 6-1 5-6 1-6-10-10-16-5-7v-6z" fill="#CA9047"/>
<path transform="translate(233,373)" d="m0 0 36 1-2 6-7 12-3-3-5-9-4 5-5 8-3-4-7-14z" fill="#E7EEE2"/>
<path transform="translate(770,516)" d="m0 0h56l7 1 1 5h-66l1-5z" fill="#1C1428"/>
<path transform="translate(398,213)" d="m0 0h7l6 3 3 4 1 8-3 7-4 6-7 9-6 14-4 10-5 4-8 1-5-3-3-4-1-3v-8l4-13 7-14 8-13 8-7zm-1 3-4 2-4 5-3 7-4 5-4 8-1 5h-2l-4 13v7l3 7 5 2h5l6-6 5-13 2-7 5-6 2-4 5-5 3-5v-8l-3-6z" fill="#ECF4EA"/>
<path transform="translate(770,582)" d="m0 0h60l3 1-1 5h-63l-1-5z" fill="#0C1B4B"/>
<path transform="translate(116,533)" d="m0 0 5 1 1 1 3 34v6l-6 2-3-2-2-16-1-23z" fill="#F2B353"/>
<path transform="translate(735,203)" d="m0 0 10 1 6 5 6 3 9 7 5 1 6 7 11 8 9 9 7 4 3 5v6l-4 3h-5l-10-9-5-4-11-9-5-4-4-2v-2l-10-5-1-2-9-5-10-6-2-6 1-3zm2 1-3 3 1 5 5 4 16 10 15 11 16 13 10 9 6 1 2-1-1-7-12-11-11-9-8-6h-2v-2l-15-10-13-8z" fill="#1F1424"/>
<path transform="translate(507,337)" d="m0 0h16l3 2-33 11-1 1h-10l-13-2v-2l13-5 16-4z" fill="#F2F1DD"/>
<path transform="translate(600,765)" d="m0 0 11 3 20 7 43 14 5 1 1 22v34h-24l1-2h19v-52l-17-4-3-1v-2l-7-1-29-9-3-2-8-1-1-3-6-1-2-1z" fill="#C29050"/>
<path transform="translate(801,795)" d="m0 0h7l2 3v6l-7 8-12 11-4 4-5 3-5 4-3 3-7 4h-2v2l-9 6-9 5-1 1h-9l-2-4 1-6 11-7 9-6 9-7 9-6 6-7 9-6 8-7h2zm1 2-8 7-11 10-14 11-19 13-12 8-1 1v5l2 2 6-1 16-10 5-3v-2l5-2 14-11 10-9 8-7 5-5v-5l-2-2z" fill="#1F1424"/>
<path transform="translate(136,646)" d="m0 0 5 3 9 26 2 5v5l-4 3-4-2-9-22-3-11v-5z" fill="#42C8D8"/>
<path transform="translate(282,676)" d="m0 0h10l8 4 5 5v2l3 1 6 12v11l-5 5-7 3h-19l-9-7-3-5-2-11 1-8 7 1 5 3 7 8 2 4 3-1-3-8-4-3-1-3-9-7 3-5zm1 2-4 2v2l11 8 5 7 1 7-3 3h-3l-6-10-7-6-5-2-1 2v11l5 10 5 4 3 1h15l10-3 3-3v-9l-4-10-6-8-9-6z" fill="#1F1424"/>
<path transform="translate(769,569)" d="m0 0h64l1 3-1 2-21 1h-41l-3-2z" fill="#0C1B4B"/>
<path transform="translate(765,389)" d="m0 0h33l-5 12-4 7-3-4-4-8-6 11-3-1z" fill="#E5ECE2"/>
<path transform="translate(358,800)" d="m0 0h6l-4 2h-4l1 38 1 2-1 2h179l68 1v1h-249v-45z" fill="#EAB865"/>
<path transform="translate(782,672)" d="m0 0h7l7 3v2h2l5 9v14l-3 5-3 4 1 4h44v2h-45l-4-4 6-9 2-7-1-9-5-8-6-3h-10l-7 4-3 4-2 7 1 9 4 8 2 2-1 4-3 2h-34l1-3h31l2-1-2-4-3-7-1-14 6-9 4-3z" fill="#D9B270"/>
<path transform="translate(176,311)" d="m0 0 5 1 1 6-9 15-7 11-2 2-6-1-1-4 7-14 8-12z" fill="#EFEFDD"/>
<path transform="translate(519,728)" d="m0 0h7l16 5 10 5 9 5 5 2 9 4 3 3 18 8 10 4 17 6 54 18 1 2-7-1-47-15-29-11-25-12-10-6-16-8-14-5-11-2z" fill="#1F1424"/>
<path transform="translate(227,678)" d="m0 0 7 1 6 3v2l-14 7-8 9-7 14-2 1h-7l2-1 1-7 5-10 10-10 5-4z" fill="#59B1F4"/>
<path transform="translate(146,368)" d="m0 0 6 1 1 5-11 28-3 4-6-1v-7l11-27z" fill="#41C8D8"/>
<path transform="translate(122,590)" d="m0 0 4 1 3 7 5 25v5l-7 2-4-11-4-19v-8z" fill="#EDAE4E"/>
<path transform="translate(758,401)" d="m0 0h3l14 26 5 9h3l12-21 2-3h2l-2 6-4 5-5 13-1 3 8-1v2h-65l2-13 4-8 9-10 9-6zm-2 3-8 4-8 8-3 5-4 7-1 9 4 2h27l14-1-3-9-5-8-2-5-6-11z" fill="#E3B66A"/>
<path transform="translate(880,371)" d="m0 0 5 1 8 16 4 12-1 4-2 2-5-1-4-9-8-19 1-5z" fill="#42C7D8"/>
<path transform="translate(320,858)" d="m0 0h279v1l-275 1-4 1v6l5 2v1l-9 1v-8l2-4z" fill="#ECF4EA"/>
<path transform="translate(902,436)" d="m0 0 4 1-2 1v3l-8 7-5 10 1 17-4-2-4-5-2-6v-8l5-10 6-5z" fill="#F2F1DC"/>
<path transform="translate(118,483)" d="m0 0 5 1 1 1v11l-2 23-7 1-2-2 1-24 2-10z" fill="#F7B249"/>
<path transform="translate(127,425)" d="m0 0 6 1 1 3-7 32-1 1h-6l-1-1v-9l6-25z" fill="#F8B248"/>
<path transform="translate(841,505)" d="m0 0 5 2 3 7 2 9v26l-3 4h-93l-1-2h94l-1-33-4-10z" fill="#1F1424"/>
<path transform="translate(399,648)" d="m0 0v3l-13 14-11 17-8 16-6 17-4 17-1 9-1 46h-1l-2-12v-27l2-19 7-22 3-10 4-9 7-11 2-5 3-5 7-6 6-7 1-3z" fill="#ECF4EA"/>
<path transform="translate(236,808)" d="m0 0h7l9 6 8 7 2 1v2l5 2 5 3 1 2 9 5 8 5 5 3 1 2v6l-5 3-9-2-3-2v-2l-6-2-5-3v-2l-5-2-12-9-6-4v-2l-4-2-6-5-1-5zm4 1-4 3 1 5 10 9 16 12 19 12 5 3h5l2-2-1-5-10-7-15-10-11-8-11-9z" fill="#1F1424"/>
<path transform="translate(667,442)" d="m0 0 4 4v2l-5-1-2 3h-3l2 4v6l-2 5-1 8 1 6-3-3-3-4-2 2 1 3 4 1 4 3 1 9-3 4h-2l2-8-4-6-6-1-3-1v-13l9-1 2-5 1-2h2l-4-8z" fill="#E1B56C"/>
<path transform="translate(902,449)" d="m0 0 9 1 4 5v7l-5 6h-9l-5-6v-7l4-5z" fill="#0C1B4B"/>
<path transform="translate(549,341)" d="m0 0 9 2 8 4-2 2-20 3-10 1h-18l1-2 27-8z" fill="#DB8519"/>
<path transform="translate(413,486)" d="m0 0h6l5 5 1 7-3 5-3 2h-7l-5-4-1-8 3-5z" fill="#3A8ADE"/>
<path transform="translate(685,441)" d="m0 0 7 1 7 6-1 5-2 5 3 1 1 4 8 1 1 2v11l-3 3-6 2-3 5 2 3-1 5-8 6-3 1-7-6-7 1-1 3h-3l3-6 7-1 5 2 2 3 4-1 6-4-2-5 1-5 5-6h6l1-12h-8l-6-9 4-8-5-2-3-2h-4l-4 5-7 1-4-4-2-4 4 2 1 3h6l5-5z" fill="#1F1424"/>
<path transform="translate(300,245)" d="m0 0h5l1 9h7l1 1v5l-8 1-1 9h-5l-1-1v-8h-8l-2-2 1-4 1-1h8v-7z" fill="#F3B04B"/>
<path transform="translate(328,539)" d="m0 0h9l2 1v14l-3 17-5 13h-2l3-13 3-6 1-5v-8l-6 3-5-1-3-4v-6l3-4z" fill="#C88B3F"/>
<path transform="translate(737,204)" d="m0 0 6 2 16 10v4l-2 3 9 6 2 3-2 1-30-20-2-2 1-6z" fill="#CA8C3D"/>
<path transform="translate(813,651)" d="m0 0 7 1 9 10 8 8 6 17 2 9v17l-3 4h-45l-4-3 1-3 3 3 45 1v-19l-4-15-4-8-5-7v-2l-4-2-9-8z" fill="#1F1424"/>
<path transform="translate(275,724)" d="m0 0 11 5-3 10-6 8-8 5-6 2-4-1 6-4 6-10z" fill="#1BA2BC"/>
<path transform="translate(729,786)" d="m0 0 5 1 1 8h7l1 5-2 2h-7v8h-6v-8h-7l-2-5 1-2 7-1 1-7z" fill="#F9B34A"/>
<path transform="translate(671,338)" d="m0 0 4 1-5 15-10 19-9 11-7 8-8 8-2-1 6-7 7-6 8-11 3-7 5-8 4-9 1-8-8 1-14 4h-6l-3 1-2-2z" fill="#CB8938"/>
<path transform="translate(727,516)" d="m0 0h1v29l-1 3-3 1h-13v-3l4-5 4-11 1 3h2v-2h2l-1-4 2-7z" fill="#79C1F1"/>
<path transform="translate(205,274)" d="m0 0 5 1 2 2-1 4-9 11-5 5-5 1-3-5 8-11z" fill="#42C8D8"/>
<path transform="translate(820,272)" d="m0 0 4 1 9 11 3 4v5l-5 3-6-5-9-11v-5z" fill="#3FC6D6"/>
<path transform="translate(519,336)" d="m0 0h18l12 2 16 6 3 5-4 2-27 4h-32l-17-2v-1h46l24-3 7-2-16-6-9-2-21-2z" fill="#1F1424"/>
<path transform="translate(802,797)" d="m0 0 5 1 1 1v5l-2 1-1-4-5 2-1 2h-3l-1 3-4 3h-2v5l-4 1-4 4-6 2-8 7-10 6-2-1 11-8 13-10 10-9 8-7zm-49 39 2 1h-3zm-3 2 2 1-10 7-1 5 4 1-2 2-5-1-1-1v-5l11-8z" fill="#C09256"/>
<path transform="translate(354,433)" d="m0 0 2 3 3 9h5v2l2 1-2 2h-7l-1 11h-4l-1-3-1-9-7 1-3-1 1-4 8-2 2-3h2v-6z" fill="#FAB44A"/>
<path transform="translate(779,674)" d="m0 0h10l7 4 3 4v2l-3-1-2-4-3-2h-10l-8 4-2 5h-2l1 11 5 10v6l-5 4h-24l-15-1v-1l39-1 3-2-1-4-4-6-2-8 1-8 3-6 6-5z" fill="#1F1424"/>
<path transform="translate(644,535)" d="m0 0h7l9 3 5 7 2 5v9l-3 6-7 6-4 1h-10l-7-3-6-7-1-5v-7l4-10 7-4zm-2 2-6 4-4 5-1 2v11l6 9 8 3 9-1 6-4 4-6 1-9-3-7-6-6-3-1z" fill="#1F1424"/>
<path transform="translate(847,303)" d="m0 0 5 2 8 11 6 11 3 3 4 10-1 6-4 2-6-1-3-3-3-8-8-12-1-3-3-1-2-6-1-7 3-1v-2zm-2 2-2 2v6l7 10 8 13 6 10 6-1 1-5-9-17-10-15-3-3z" fill="#1F1424"/>
<path transform="translate(248,672)" d="m0 0h13l8 2-1 5-3 5h-12l-4-5v-2l-4-2-1-2z" fill="#EFEEDB"/>
<path transform="translate(687,589)" d="m0 0h6v7h6l1 1v5h-7v7l-5 1-1-7-7-1v-5l1-1h6z" fill="#EAAF54"/>
<path transform="translate(237,706)" d="m0 0h7l6 4 4 6 1 3v13l-3 7-8 8-5 4-5-2 2-2 10-5 4-5 3-11-4-13-3-3-12-1-3 6h-2l-2 4-6 2v-3l11-9z" fill="#ECF4EA"/>
<path transform="translate(435,368)" d="m0 0 10 1 39 7 18 2h29l21-2h8l-4 2-30 3h-15l-23-2-26-4-8-2-12-1-7-3z" fill="#EBB965"/>
<path transform="translate(272,689)" d="m0 0 8 4 3 4h-3l-4-2 1 4-1 4 3 8 5 3 10 1 9-1 7-5 1-7h1v9l-5 4-8 2h-15l-6-3-4-5-3-7v-11z" fill="#C4904E"/>
<path transform="translate(201,724)" d="m0 0 10 1 2 6 1 8-5 7-3-1-4-12z" fill="#F7F6E2"/>
<path transform="translate(254,464)" d="m0 0h14l15 3 19 9 3 3 5 3 9 9 1 7-13 10-6 4-2-1 10-8 8-6h2l-3-5-2-4-4-2-11-8-14-7-16-4-15-2z" fill="#1F1424"/>
<path transform="translate(523,337)" d="m0 0 17 1 9 2v2h-8l-7-1-10 1-9 3-8 2-5 3 10 1v2h-12l-12-1 4-2 12-5 18-6z" fill="#E2B56B"/>
<path transform="translate(767,535)" d="m0 0 5 1h60v1h-13v2l-14 3-5-1v-2l-15 1-3 1-4-1-5 1-6-3z" fill="#DEB46E"/>
<path transform="translate(444,198)" d="m0 0 6 1 5 5 2 4-1 9-7 6h-9l-5-4-3-7 2-8 6-5zm-2 3-5 3-1 12 5 5 8-1 5-5v-8l-3-5-2-1z" fill="#ECF4EA"/>
<path transform="translate(121,588)" d="m0 0 7 1 4 13 2 11 1 1 1 14-3 3-4 1-5-3-4-16-3-15v-6zm1 2-3 2v8l6 26 2 4 7-2-1-9-5-25-3-4z" fill="#1F1424"/>
<path transform="translate(114,532)" d="m0 0h7l3 3 3 31v8l-4 5-7-1-2-6-2-20v-17zm2 1-3 3 1 23 2 16 5 2 4-2-1-16-2-24-2-2z" fill="#1F1424"/>
<path transform="translate(389,499)" d="m0 0h8l7 4 3 7v8h-2l-2 5-3 3-8 1-6-2-5-4h-2l-4 4-3-1 4-3-1-5 4 1v-7l2-6zm0 2-6 4-2 3v9l5 6 5 2 8-1 5-5 1-9-3-6-4-3z" fill="#1F1424"/>
<path transform="translate(260,477)" d="m0 0h1v14l11 2 10 4 11 8 5 4 2 2-4 2-13-10-11-5-10-3-2 1z" fill="#A9A295"/>
<path transform="translate(342,733)" d="m0 0 2 4-1 7 1 1-1 29v68l1 2 9 1v1h-12v-105z" fill="#ECF4EA"/>
<path transform="translate(125,424)" d="m0 0h8l3 3-1 7-2 9-1 10-4 9-3 2-7-1-1-2v-8l6-26zm2 1-3 5-5 22v9l1 1h6l2-4 6-30-3-3z" fill="#1F1424"/>
<path transform="translate(646,546)" d="m0 0 6 1 3 4-1 7-4 3-7-1-3-4 1-6 2-3z" fill="#1F1424"/>
<path transform="translate(598,511)" d="m0 0 5 1v5h5l1 5-1 1h-5v5l-5 1-1-6h-6l-1-5 1-1h6v-5z" fill="#EAEAD9"/>
<path transform="translate(902,447)" d="m0 0h7l4 2v2h2l1 4h-2l-3-4-9-1-5 5-1 5-3-1-1 3 1 10v3l8 2h8l10-3-4 4-5 2h-10l-9-4-1-18 5-10 1 2z" fill="#E0B56C"/>
<path transform="translate(671,336)" d="m0 0h3v2l-31 8-43 10-11 1 4-2 5-2 16-3 5-2 16-3 25-6z" fill="#1F1424"/>
<path transform="translate(903,435)" d="m0 0 12 1 7 5 4 5 2 5v14l-4 8-7 6-5 2-8 1-10-2-8-7v-3l7 6 7 3h10l8-4 6-7 2-7-1-10-6-9-7-4-9-2z" fill="#1F1424"/>
<path transform="translate(791,673)" d="m0 0 5 2v2h2l5 9v14l-3 5-3 4 1 4h44v2h-45l-4-4 6-9 2-7-1-9-5-8-6-3z" fill="#D1B077"/>
<path transform="translate(600,765)" d="m0 0 11 3 20 7 43 14v1l-10-1-8-2v-2l-7-1-29-9-3-2-8-1-1-3-6-1-2-1z" fill="#C68D46"/>
<path transform="translate(237,375)" d="m0 0h13v7l-7 11-3-4-3-5z" fill="#F6F5E0"/>
<path transform="translate(854,318)" d="m0 0 6 2 9 16 1 5-5 3-5-11v-3l-3-1-2-6h-2l-1-3h2z" fill="#DA861C"/>
<path transform="translate(127,425)" d="m0 0 6 1 1 3-5 23h-1v-7l1-9-2-4h2l-1-1-2 4-2 6-3 16v3l4-1 3-3-2 6h-6l-1-1v-9l6-25z" fill="#DAB270"/>
<path transform="translate(316,512)" d="m0 0 2 1-6 7 5 20v11l-1 10-2 5h-2l1-7v-19l-3-13-1-1v-6h-2v-2z" fill="#E8B868"/>
<path transform="translate(116,482)" d="m0 0h7l3 4v13l-2 19-4 4-6-1-2-2v-17l1-15zm2 1-3 3-2 23v9l2 2 7-1 2-23v-11l-3-2z" fill="#1F1424"/>
<path transform="translate(351,428)" d="m0 0h6l2 2 3 10 6 3v3l-3-2-6-2-1-1-2-10h-5l-2 11-9 3-1 5 10 2 2 10 1 2-4-2-2-8-7-2-2-2v-6l4-3 6-1 1-10z" fill="#1F1424"/>
<path transform="translate(283,678)" d="m0 0h10l5 3-4 1-6-1v2l4 1 3 7 4 6v8l-5 5-4-2 5-2 1-6-3-6-5-6-9-6v-2z" fill="#C68D45"/>
<path transform="translate(293,474)" d="m0 0 11 6 10 8 5 6v3l-5 3-2-1-4-7-8-10-7-6z" fill="#CB8C3D"/>
<path transform="translate(758,217)" d="m0 0 4 1 9 6v2l5 2-1 2 2 1v2l-6 2v-2l-4-1-3-4-7-4-1-2 2-1-1-2z" fill="#CC8C3B"/>
<path transform="translate(909,529)" d="m0 0h5l2 4-2 1h-4l-2 35-2 15-3 9-1-2 2-12 2-23 1-24z" fill="#C88B3F"/>
<path transform="translate(298,796)" d="m0 0h6l4 5-1 6-4 3-6-1-2-3v-7z" fill="#3A8ADE"/>
<path transform="translate(739,264)" d="m0 0h2l1 6 6 1 1 4h-4v3l-6 1 1 3-1 2 2 1h-4l1-7h-3v-2h-3l1-4 2-1v2h2v-7z" fill="#FAB54A"/>
<path transform="translate(389,501)" d="m0 0h9l5 5 2 4-1 9-5 5h-2l2-4 3-4v-6l-3-5-3-1h-7l-3 3h-2l-1 7 2 5 6 2 4 4-7-1-6-5-1-2v-9l4-5z" fill="#D8B272"/>
<path transform="translate(216,389)" d="m0 0 3 1-12 8-4 5-1 2h-2l-2 5-6 14-4 1-5-1v-3h2l1-2 1 2h4l3-11 8-11v-3l6-3z" fill="#E5F0EA"/>
<path transform="translate(672,459)" d="m0 0h10l6 4 2 4v8l-3 5-6 4h-9l-6-5-1-2v-11l5-6zm1 1-6 7-1 7 3 6 6 3 7-1 6-8 1-5-2-4-5-4z" fill="#1F1424"/>
<path transform="translate(736,493)" d="m0 0 2 2-6 8-3 9-1-2h-2l-2-2v-4h-2v5h-1v-7l3-1 1-5z" fill="#84C5F3"/>
<path transform="translate(299,244)" d="m0 0h6v1h-5l-1 9-8 1-1 4 1 1 8 1 1 8 5 1 1-9 8-1v-5l2 2-1 5-1 1h-6l-1 7-2 2h-5l-3-4v-5l-8-1-1-2v-6l3-2 6-1z" fill="#1F1424"/>
<path transform="translate(550,740)" d="m0 0 6 2 18 10 23 11 3 2-3 1-10-4-9-5-7-1-5-5-13-7-3-2z" fill="#C68D45"/>
<path transform="translate(622,350)" d="m0 0 4 1-3 2-6 2-2 1-9 1-8 2h-3l2 3v8l-3 3-1-9-2-7z" fill="#C88C41"/>
<path transform="translate(671,338)" d="m0 0 4 1-5 15-10 19-9 11-7 8-8 8-2-1 6-7 7-6 11-15 6-10 6-14z" fill="#A9A295"/>
<path transform="translate(689,586)" d="m0 0 5 2 3 5 5 4v5l-2 2h-5l-1 7-6 1v-2l4-1 1-7h7l-1-5-6-1v-7h-6v7l-6 1-1 5-2-1 1-5 4-3h2l1-6z" fill="#1F1424"/>
<path transform="translate(632,400)" d="m0 0 2 1-7 7-11 9-14 12-12 10-8 7-2 2-3-1 7-6h2l1-3 9-7 15-13 8-7z" fill="#A9A295"/>
<path transform="translate(842,427)" d="m0 0h1v13h-47l1-2 42-1z" fill="#CB8937"/>
<path transform="translate(365,351)" d="m0 0 38 9 32 7v1h-11l-9-3-23-5-15-4-8-1-1 3-3-3z" fill="#EBB965"/>
<path transform="translate(325,541)" d="m0 0h6l3 4-1 6-3 2h-5l-3-3v-6z" fill="#1F1424"/>
<path transform="translate(776,390)" d="m0 0 4 1v2l-1 5-3 9-3-1-4-8 1-5z" fill="#F0F1DE"/>
<path transform="translate(902,449)" d="m0 0 9 1 4 5v7l-5 6h-9l-5-6v-7l4-5zm0 2-2 1-3 5 1 4 5 5 7-1 3-4-1-8-4-2z" fill="#1F1424"/>
<path transform="translate(728,785)" d="m0 0h6l3 4v3h5v2h2l1 7-8 4-2 5h-1v-8l7-1 1-5-7-1-2-8h-4l-1 7-1 1h-7l4-3h2v-5z" fill="#1F1424"/>
<path transform="translate(341,186)" d="m0 0h8v1l-5 1-1 2-1 97h-1z" fill="#ECF4EA"/>
<path transform="translate(249,465)" d="m0 0h12l17 3 14 5v1l-10-1-10-3h-2v-2l-15 1v4l-5 1 3-7z" fill="#E3B66A"/>
<path transform="translate(802,797)" d="m0 0 5 1 1 1v5l-2 1-1-4-5 2-1 2h-3l-1 3-4 3h-2v5l-4 1-4 4-3-1 11-12 8-7z" fill="#C68F49"/>
<path transform="translate(252,613)" d="m0 0 7 1 1 2v6l-4 3-5-1-2-1v-8z" fill="#1F1424"/>
<path transform="translate(575,448)" d="m0 0 2 1-5 5-4 2-1 3-7 5-5 3-10 11-6 11-1-3 6-10 5-7 2-1 1-3h3l2-5 5-2 4-2z" fill="#CD8832"/>
<path transform="translate(634,543)" d="m0 0 2 1-2 11 2 7 5 5 3 1h7l6-3 3 1-6 4-9 1-8-3-6-9v-11z" fill="#DEB46E"/>
<path transform="translate(182,541)" d="m0 0 4 1 3 4-1 4-4 3-4-1-3-3 1-5 1-2z" fill="#0D1A48"/>
<path transform="translate(246,479)" d="m0 0h2v11l-14 5-3-1 11-6h3l1-7-10 2-3 2-9 1 1-2 12-4z" fill="#EBB965"/>
<path transform="translate(481,600)" d="m0 0h5l3 4-1 6-2 1h-6l-2-3 1-6z" fill="#A9A295"/>
<path transform="translate(181,647)" d="m0 0 5 2 2 3-1 5-3 2-5-1-2-3 1-6z" fill="#DBB16E"/>
<path transform="translate(520,731)" d="m0 0h10l16 6-1 2-5-1-4-2h-9v-2h-4l-2 8h-2v-10z" fill="#CB8A3A"/>
<path transform="translate(746,408)" d="m0 0 2 1-7 7-2 4-5 8-1 9 5 1 25 1v1h-33l2-13 4-8 9-10z" fill="#E9B866"/>
<path transform="translate(182,555)" d="m0 0v3l-3 3-2 1v8l3 9 6 12 2 3-1 3-6-9-6-15-2-9 5-6z" fill="#E4B669"/>
<path transform="translate(844,546)" d="m0 0h4v5h-56v-1l34-1h17z" fill="#E9A340"/>
<path transform="translate(502,519)" d="m0 0h1v9l-3 16-5 11-7 10h-2l2-5 4-7 3-3 4-13 2-16z" fill="#ECF4EA"/>
<path transform="translate(164,451)" d="m0 0 4 1 4 5-1 5h-2v-2l-10 1 1-6 4-2z" fill="#D6A55C"/>
<path transform="translate(390,722)" d="m0 0 5 1 3 3-1 5-2 2h-5l-3-4 1-5z" fill="#A9A295"/>
<path transform="translate(688,464)" d="m0 0 4 1 1 10-1 4-3 1-4 4-5 2h-8l-4-3 1-2 3 2h9l4-3h2l2-5v-8z" fill="#DCB36F"/>
<path transform="translate(328,634)" d="m0 0 5 1 2 3-1 5-3 2-5-1-1-1v-7z" fill="#E4A850"/>
<path transform="translate(644,545)" d="m0 0h8l5 6-1 7-5 5h-7l-5-5v-9zm2 1-4 2-2 4 1 6 4 3 7-1 3-4-1-7-5-3z" fill="#DEB36D"/>
<path transform="translate(906,437)" d="m0 0h6l9 6 5 8 1 10-2 4-3-17-8-7-7-2-1 3-5 2 3-6z" fill="#D6B172"/>
<path transform="translate(320,145)" d="m0 0 2 3-3 6-1 5 7 1h3l1-3h1v6l-5 1h-9l-1-4 2-9z" fill="#DAE7E4"/>
<path transform="translate(511,343)" d="m0 0m-4 1 4 1-9 5 10 1v2h-12l-12-1 4-2 12-5z" fill="#DFB56D"/>
<path transform="translate(252,473)" d="m0 0h5l3 3v16l-2-4-1-11-5-2-2 16-2 1v-14l2-4z" fill="#1F1424"/>
<path transform="translate(646,548)" d="m0 0 5 1 1 7-1 2-7 1-1-2v-6z" fill="#0C1B4B"/>
<path transform="translate(776,545)" d="m0 0h4l-2 4-18 1-4-2v-2z" fill="#DB8519"/>
<path transform="translate(735,256)" d="m0 0h7l3 4 1 7 6 2-3 1-5-1-3-11-5 1-2 9-8 3-2 2 1-4 6-2z" fill="#1F1424"/>
<path transform="translate(732,482)" d="m0 0 2 1-6 4 1-3zm-5 5m-1 1 1 3 5 1 4-1h8l-3 2-12 3h-4l-1 5h-2l2-10z" fill="#E2EAE1"/>
<path transform="translate(342,733)" d="m0 0 2 4-1 7 1 1-1 28-2 1v-33z" fill="#E5EBE1"/>
<path transform="translate(642,537)" d="m0 0h11l5 3 5 5 2 6-1 9-3 5-1-4 2-4v-7l-3-6-4-3v-2h-15z" fill="#DBB370"/>
<path transform="translate(257,470)" d="m0 0 4 4 1 2v13l6 1 9 2 3 3-3 1-8-3-8-2-1-14-5-4v-2z" fill="#E6B767"/>
<path transform="translate(758,401)" d="m0 0h3l13 24h-3l-3-4-2-5-5-10-5-1-6 3-2-1 8-5z" fill="#D8B272"/>
<path transform="translate(729,786)" d="m0 0 5 1 1 7-4-5-1 6-2 2-5 1-1 2 5 1v1h-6l-2-5 1-2 7-1 1-7z" fill="#D8B271"/>
<path transform="translate(196,509)" d="m0 0 1 2-8 16-3 12 5 6-2 2-4-5-3-2 8-22z" fill="#E5B768"/>
<path transform="translate(901,597)" d="m0 0 2 1-1 10-6 24-3 1 4-17z" fill="#C28F4F"/>
<path transform="translate(165,449)" d="m0 0 4 1 5 6-1 7h-14v-2l8-2 2 1v2l2-1-1-6-3-3-3-1v2l-4 2 2-4z" fill="#1F1424"/>
<path transform="translate(775,656)" d="m0 0h27l-2 1v3h-7l-3-2h-14l-13 5-4 1 3-3z" fill="#EBB965"/>
<path transform="translate(913,576)" d="m0 0h1l-1 13-5 26-2 4 1-11 2-15 1-1z" fill="#C88B3E"/>
<path transform="translate(808,391)" d="m0 0 6 1 11 6v3l-12-6-4 1-2 4-4 2 2-6z" fill="#C4904F"/>
<path transform="translate(468,456)" d="m0 0 4 2 8 7 5 4 4 6 7 10-1 3-9-13-1-3h-2l-6-7-8-7z" fill="#EBB965"/>
<path transform="translate(753,271)" d="m0 0 3 1-2 5-5 3h-3l-1 6-3 5h-6v-2l5-1 2-10 9-2z" fill="#1F1424"/>
<path transform="translate(756,216)" d="m0 0 3 1v3l-2 3 9 6 2 3-2 1-14-10v-3z" fill="#CB8F41"/>
<path transform="translate(342,443)" d="m0 0 3 1-4 2-1 3 11-1 1 12 4 4-5-1-2-5v-6l-8-1-3-3 2-4z" fill="#D3B076"/>
<path transform="translate(550,341)" d="m0 0 11 3 5 3-2 2-10 1-2-2 2-1-1-4h-3z" fill="#C48E4B"/>
<path transform="translate(362,443)" d="m0 0 5 1 2 4-2 3-9 1v9l-1 2-3-1 2-7 1-5 7-1v-2z" fill="#DBB370"/>
<path transform="translate(791,673)" d="m0 0 5 2v2h2l5 9v14l-2 4h-2l2-9-1-9-5-8-6-3z" fill="#D6B173"/>
<path transform="translate(812,651)" d="m0 0 9 6 5 6h-3l-4-3v-2l-4-2-4-1-4 2h-5v-2z" fill="#CE964B"/>
<path transform="translate(742,277)" d="m0 0h1v9l-2 3h-5l-1-2v-9h3v7l1-1v-5z" fill="#E1B56B"/>
<path transform="translate(116,533)" d="m0 0 4 1-5 2 1 13v20h-1l-2-25v-8z" fill="#D1B077"/>
<path transform="translate(765,691)" d="m0 0 2 3 3 10 4 5-1 4-3 2-3-1 3-3-2-4-3-7-1-8z" fill="#D9B371"/>
<path transform="translate(696,463)" d="m0 0 11 2v12l-5 1-2-2 3-1 1-5-2-2-5-2z" fill="#C19459"/>
<path transform="translate(212,731)" d="m0 0 2 4-1 6-4 5-3-1-2-5v-3l6 2z" fill="#E7EEE3"/>
<path transform="translate(311,702)" d="m0 0h1v9l-5 4-8 2h-15v-2h10l9-1 7-5z" fill="#C98D40"/>
<path transform="translate(122,590)" d="m0 0 4 1-4 2 1 15 2 9v6l-2-4-4-19v-8z" fill="#D7B273"/>
<path transform="translate(765,389)" d="m0 0h33v1l-22 1-6 3-2 2z" fill="#D0D1C6"/>
<path transform="translate(595,356)" d="m0 0h5l-2 3h-3l2 3v8l-3 3-1-9-2-7z" fill="#CC8D3E"/>
<path transform="translate(440,432)" d="m0 0 4 2 9 7 5 5 8 7 2 1v2l-4-2-14-12-10-8z" fill="#EBB965"/>
<path transform="translate(755,548)" d="m0 0 5 1h22l10 1v1h-36z" fill="#D18B33"/>
<path transform="translate(600,765)" d="m0 0 11 3 13 5 1 2h-5l-3-2-8-1-1-3-6-1-2-1z" fill="#C88B3F"/>
<path transform="translate(917,474)" d="m0 0 2 1-6 4-3 1h-10l-9-4v-1h5l5 2h8z" fill="#DAB370"/>
<path transform="translate(202,384)" d="m0 0 2 1-6 6-2 6v2h-2v2l-6 1 6-10z" fill="#E7EBDD"/>
<path transform="translate(907,563)" d="m0 0h1l-1 16-3 13-2 1 3-25z" fill="#C48E4A"/>
<path transform="translate(395,501)" d="m0 0 4 1 4 4 2 4-1 9-5 5h-2l2-4 3-4v-6l-3-5-3-1z" fill="#D3B076"/>
<path transform="translate(784,532)" d="m0 0h23l6 1v1l-13 1-17-1z" fill="#0C1B4B"/>
<path transform="translate(797,412)" d="m0 0h2l-2 6-4 5-4 10-5 3 2-5z" fill="#D6B173"/>
<path transform="translate(799,684)" d="m0 0 2 2 1 9-3 9-5 6-1-2 6-12-1-10z" fill="#1F1424"/>
<path transform="translate(681,596)" d="m0 0h5l-4 5 7 1 2 3h2l-1 5h-4l-1-7-7-1v-5z" fill="#CBAD7B"/>
<path transform="translate(123,492)" d="m0 0 1 4-2 23-7 1-2-2v-9h1v8l7 1v-12l1-11z" fill="#CAAD7D"/>
<path transform="translate(210,616)" d="m0 0 14 7 13 4v2l-12-3-14-7z" fill="#D8B272"/>
<path transform="translate(656,342)" d="m0 0h4v2l-14 4h-6l-3 1-2-2z" fill="#C78C41"/>
<path transform="translate(382,573)" d="m0 0 2 3v2h5l-1 6-4 1v-5l-4-1-1 1v5l4 2-4 1-2-2v-7l4-3z" fill="#1F1424"/>
<path transform="translate(127,425)" d="m0 0 6 1 1 3-5 23h-1v-7l3-13-1-4-5 1z" fill="#D1B077"/>
<path transform="translate(325,506)" d="m0 0 4 2 2 6-2 2-3-4h-3l-5 1 1-3z" fill="#C39251"/>
<path transform="translate(894,461)" d="m0 0 3 1 4 5h9l4-5h2l-1 4-6 4-5 1-5-2v-2h-2l-3-3z" fill="#D6B173"/>
<path transform="translate(152,584)" d="m0 0 5 1 1 4-2 3-5-1-1-5z" fill="#3A8ADE"/>
<path transform="translate(260,496)" d="m0 0h1l1 39 2-1-1 4h-3z" fill="#DBE0D5"/>
<path transform="translate(659,458)" d="m0 0v3l-1 4-2 3-6 2-2 2-1-7 9-1 2-5z" fill="#F0EDD8"/>
<path transform="translate(578,755)" d="m0 0 6 2 16 7-1 2-10-3-11-6z" fill="#C68D45"/>
<path transform="translate(721,636)" d="m0 0 5 1 1 5-2 2-5-1v-6z" fill="#3B8BDF"/>
<path transform="translate(222,486)" d="m0 0 2 1-10 7-4 3h-2l-2 4-5 3 2-4 10-9z" fill="#EBB965"/>
<path transform="translate(233,708)" d="m0 0 1 3-3 4h-2l-2 4-6 2v-3l11-9z" fill="#ECF4E9"/>
<path transform="translate(585,439)" d="m0 0 1 2-6 4-15 13h-3l8-7 4-4h2l1-3z" fill="#CE8831"/>
<path transform="translate(291,254)" d="m0 0h6l-1 4 2 1v2h-7l-2-2 1-4z" fill="#D2B076"/>
<path transform="translate(251,737)" d="m0 0v3l-7 7-5 4-5-2 2-2 10-5z" fill="#E9F0E6"/>
<path transform="translate(371,516)" d="m0 0 5 1 1 4-3 3-4-1-1-5z" fill="#CAA56D"/>
<path transform="translate(367,450)" d="m0 0 1 2-7 2-2 9-2 2h-5l4-2 1-2 1-9z" fill="#1F1424"/>
<path transform="translate(529,350)" d="m0 0h23v1l-18 2h-6z" fill="#C38F4D"/>
<path transform="translate(320,858)" d="m0 0m-2 1 2 1v7l5 2v1l-9 1v-8z" fill="#E8F0E6"/>
<path transform="translate(897,644)" d="m0 0h2l-2 9-6 15-2-1 2-5 2-7h2l1-7z" fill="#C68D45"/>
<path transform="translate(380,578)" d="m0 0 5 2-1 5-5 1-1-1v-5z" fill="#C6A06A"/>
<path transform="translate(657,565)" d="m0 0 3 1-6 4-9 1-8-3 3-2 4 2h7z" fill="#D4B175"/>
<path transform="translate(326,543)" d="m0 0 5 1v5l-4 2-3-3 1-4z" fill="#0C1B4B"/>
<path transform="translate(671,457)" d="m0 0h9l5 2-1 2-2-1h-10l-5 4-3 3 2-6z" fill="#D9B272"/>
<path transform="translate(685,443)" d="m0 0 5 1 5 3-3 1-6-2-4 5h-10v-2l9-1z" fill="#D4AF72"/>
<path transform="translate(792,806)" d="m0 0m-1 1m-2 1 2 1-2 5v2l-4 1-4 4-3-1z" fill="#C98B3C"/>
<path transform="translate(909,529)" d="m0 0h5l2 4-2 1h-6v10h-1v-12z" fill="#BD9560"/>
<path transform="translate(503,502)" d="m0 0 2 2v10l3 4-1 2-5-5v-12z" fill="#D38F38"/>
<path transform="translate(179,646)" d="m0 0h7l3 4v7l-3 3h-6l-1-2 7-1 1-5-4-4h-4z" fill="#1E1424"/>
<path transform="translate(385,571)" d="m0 0 5 1v5l-1 1h-5l-1-5z" fill="#C4A473"/>
<path transform="translate(746,269)" d="m0 0 6 1 1 1v5l-5 2h-3v-3h4l-1-5z" fill="#D3B076"/>
<path transform="translate(765,226)" d="m0 0 3 1v3h7l2 1v2l-6 2v-2l-4-1-3-5z" fill="#DA851B"/>
<path transform="translate(619,493)" d="m0 0 5 1 1 4-2 2-5-1v-5z" fill="#CDAA74"/>
<path transform="translate(650,478)" d="m0 0 6 1 5 7-2 5-2 3v-9l-2-4-7-1z" fill="#1F1424"/>
<path transform="translate(175,661)" d="m0 0 5 1v6l-4 1-2-2v-5z" fill="#3A8BDE"/>
<path transform="translate(724,274)" d="m0 0 5 3 5 1 2 11-3-3-2-6-6-1z" fill="#1F1424"/>
<path transform="translate(500,263)" d="m0 0 2 1-8 8-2 7-4 2 2-6 5-8z" fill="#E1E4D7"/>
<path transform="translate(201,724)" d="m0 0 10 1v3l-2 1-4-1-2 5h-1z" fill="#E2E7DC"/>
<path transform="translate(445,585)" d="m0 0 2 1-9 9v2l-5 3-2-1zm-16 15 2 1-4 2z" fill="#DBDDD0"/>
<path transform="translate(177,577)" d="m0 0 4 4 5 10 2 3-1 3-6-9-4-9z" fill="#D6B173"/>
<path transform="translate(575,448)" d="m0 0 2 1-5 5-4 2-1 3-5 4h-2l2-4 11-9z" fill="#A9A295"/>
<path transform="translate(204,698)" d="m0 0 1 3-2 7-3 1v-3h-2l1-4 3-1z" fill="#F8F7E2"/>
<path transform="translate(118,483)" d="m0 0 5 1 1 3-6-1-1 1-1 12-2 2 1-15z" fill="#CBAE7B"/>
<path transform="translate(758,401)" d="m0 0h3l3 5-1 4-2-4-5-1-6 3-2-1 8-5z" fill="#E4B66A"/>
<path transform="translate(158,339)" d="m0 0 3 1 1 2h4l-2 4-6-1-1-4z" fill="#DEE2D7"/>
<path transform="translate(758,217)" d="m0 0 4 1v3l2 1-4 4-4-4 2-1-1-2z" fill="#D88621"/>
<path transform="translate(340,142)" d="m0 0m-3 1h3v2l-6 5-4 7-1-3 4-7z" fill="#E9F2EA"/>
<path transform="translate(728,801)" d="m0 0 2 2 1 4 2-6 2 1-1 8h-6z" fill="#E3B66A"/>
<path transform="translate(859,320)" d="m0 0 4 5 4 8-3-1-4-5-3-6z" fill="#C5904C"/>
<path transform="translate(568,750)" d="m0 0 6 2 4 2v2l-5 1-5-5z" fill="#C98A3C"/>
<path transform="translate(347,709)" d="m0 0 2 1-1 8-2 4v6h-3l3-16z" fill="#DBDFD4"/>
<path transform="translate(393,635)" d="m0 0m-2 1 2 1-3 3-1 4-6 4-3 3-2-1 9-9z" fill="#DCDED0"/>
<path transform="translate(482,602)" d="m0 0 4 2-1 5-5-1-1-3z" fill="#EBB965"/>
<path transform="translate(736,795)" d="m0 0h6l1 5-2 2-4-1h2v-3l-4-2z" fill="#D4B175"/>
<path transform="translate(459,573)" d="m0 0 1 3-5 7-4-2 6-7z" fill="#E4E8DC"/>
<path transform="translate(473,559)" d="m0 0 2 1-2 2 1 2h-2l-1 3-5 2-4 2 6-7z" fill="#DCDFD3"/>
<path transform="translate(688,464)" d="m0 0 4 1 1 10-1 4-2-1-1-11z" fill="#E2B366"/>
<path transform="translate(276,468)" d="m0 0 9 2 7 3v1l-10-1-5-2z" fill="#D8B06E"/>
<path transform="translate(391,724)" d="m0 0 4 1 1 4-2 2-4-1v-5z" fill="#EBB864"/>
<path transform="translate(244,673)" d="m0 0h10l-2 5-5-1z" fill="#EFF3E4"/>
<path transform="translate(335,568)" d="m0 0 1 3-5 13h-2l3-12z" fill="#C98D42"/>
<path transform="translate(787,433)" d="m0 0 1 3-1 3 8-1v2h-13l1-4z" fill="#E9B866"/>
<path transform="translate(185,419)" d="m0 0 4 2 4-2-1 5-4 1-5-1v-3h2z" fill="#E0E5DB"/>
<path transform="translate(224,378)" d="m0 0 3 4-1 4-5 3h-2l-1-3 5-2z" fill="#DAE7E3"/>
<path transform="translate(299,262)" d="m0 0 2 3 1 2 2-5 2 1-1 7h-5l-1-1z" fill="#D7B273"/>
<path transform="translate(249,465)" d="m0 0h12v1l-6 1-6-1zm4 2h2v6l-5 1z" fill="#CDAE7A"/>
<path transform="translate(608,858)" d="m0 0 5 1v6l-2 4h-2z" fill="#86C8F5"/>
<path transform="translate(740,846)" d="m0 0h1v5l4 1-2 2-5-1-1-4z" fill="#C39151"/>
<path transform="translate(250,608)" d="m0 0 9 4-2 2h-5l-3 1z" fill="#DFB46D"/>
<path transform="translate(128,429)" d="m0 0 2 1-1 3v2 3l-4 3 1-11z" fill="#DF8B1F"/>
<path transform="translate(300,245)" d="m0 0h5l-1 3-2 4-1 3h-2v-8z" fill="#D6B173"/>
<path transform="translate(790,656)" d="m0 0h12l-2 1v3h-7l-3-2z" fill="#ECB863"/>
<path transform="translate(182,541)" d="m0 0 4 1 3 4-1 4-4 3-3-1 5-5-2-4z" fill="#1F1424"/>
<path transform="translate(906,437)" d="m0 0h6l2 1v2l-7-1-1 3-5 2 3-6z" fill="#DEB46E"/>
<path transform="translate(127,427)" d="m0 0 4 1 1 4-1 5-3-1-1-4h2l-1-1-2-1z" fill="#F7B248"/>
<path transform="translate(883,661)" d="m0 0 2 1-1 6 1 2-1 2 4 1-3 1-4-2 1-9z" fill="#BD9663"/>
<path transform="translate(662,549)" d="m0 0h2l1 7-3 8-2 1 1-5 1-3z" fill="#D7B273"/>
<path transform="translate(239,384)" d="m0 0 3 3h2l1-2h2l-2 5-3 3-4-8z" fill="#E3E9DE"/>
<path transform="translate(520,350)" d="m0 0h6l2 1v2h-12l1-2z" fill="#D0872C"/>
<path transform="translate(308,254)" d="m0 0h5l1 1v5l-7 1 2-3 3 1-1-2-4-2z" fill="#D7B273"/>
<path transform="translate(256,823)" d="m0 0 7 4 1 3-5-1-5-3z" fill="#DB8519"/>
<path transform="translate(800,798)" d="m0 0 2 1-5 5-2 4-4 3-2-1z" fill="#C38F4C"/>
<path transform="translate(328,634)" d="m0 0 5 1 2 3-1 4-3-5-2-1-1 2-3 1 1-4z" fill="#CBAD7B"/>
<path transform="translate(280,625)" d="m0 0 2 2-12 3h-6l3-1v-2l10-1z" fill="#C78C42"/>
<path transform="translate(232,599)" d="m0 0 11 3 1 2-10-1-2-1z" fill="#B6A68B"/>
<path transform="translate(655,471)" d="m0 0 3 3 2 6-6-3v-2l-3-1z" fill="#F9B348"/>
<path transform="translate(254,615)" d="m0 0 3 1 1 4-6 1-1-4z" fill="#0C1B4B"/>
<path transform="translate(600,523)" d="m0 0h3v5l-5 1-1-5z" fill="#E0E5DA"/>
<path transform="translate(269,491)" d="m0 0h6l4 2 1 3-5-1-6-2z" fill="#EBB965"/>
<path transform="translate(600,426)" d="m0 0 2 1-13 11-2-1 11-10z" fill="#CE8831"/>
<path transform="translate(227,304)" d="m0 0 2 1v3l-4 4-2 6-2-1 4-10z" fill="#E6EBE0"/>
<path transform="translate(285,845)" d="m0 0h5l1 5h-5z" fill="#DB8519"/>
<path transform="translate(351,696)" d="m0 0 2 4 1 4-3 1-1 2h-2z" fill="#E0E5D9"/>
<path transform="translate(680,602)" d="m0 0 7 1 1 7-3-3v-2l-5-1z" fill="#1F1424"/>
<path transform="translate(620,491)" d="m0 0 5 1-1 3-5-1-2 6h-1v-6z" fill="#1F1424"/>
<path transform="translate(778,307)" d="m0 0h8l-4 3h-11l3-2z" fill="#D4D5C9"/>
<path transform="translate(305,245)" d="m0 0 3 2v5l5 1v1h-7z" fill="#1F1424"/>
<path transform="translate(720,801)" d="m0 0 8 1v8l-2-1-1-4-5-2z" fill="#1F1424"/>
<path transform="translate(122,590)" d="m0 0 4 1-4 2-1 7h-2v-8z" fill="#BFA984"/>
<path transform="translate(844,546)" d="m0 0h4v5h-6z" fill="#D3923D"/>
<path transform="translate(127,456)" d="m0 0 1 2-2 4h-6l-1-5h2v3l4-1z" fill="#D6B173"/>
<path transform="translate(354,317)" d="m0 0h2l2 14h-2l-3-11z" fill="#E4EAE0"/>
</svg>
